<?xml version="1.0" encoding="utf-8"?>
<!-- Generator: Adobe Illustrator 24.2.0, SVG Export Plug-In . SVG Version: 6.00 Build 0)  -->
<svg version="1.1" id="Capa_1" xmlns="http://www.w3.org/2000/svg" xmlns:xlink="http://www.w3.org/1999/xlink" x="0px" y="0px"
	 viewBox="0 0 1068 316" style="enable-background:new 0 0 1068 316;" xml:space="preserve">
<style type="text/css">
	.st0{fill:#56AE32;}
	.st1{fill:#FFFFFF;}
	.st2{fill:#E82E4D;}
</style>
<path d="M133.95,248.79v-29.91H92.78l0,29.05c0,12.82-9.64,23.44-21.94,24.17c-0.48,0.03-0.95,0.04-1.42,0.04
	c-12.88,0-23.36-10.48-23.36-23.36l0-75.11c0-0.83,0.68-1.51,1.51-1.51l86.37,0l0-104.78c0-7.4-1.24-14.63-3.67-21.5
	c-9.1-25.73-33.56-43.02-60.85-43.02S17.67,20.15,8.57,45.89C6.13,52.76,4.9,60,4.9,67.39l0,181.4c0,27.3,17.29,51.75,43.02,60.85
	c6.88,2.44,14.11,3.67,21.5,3.67s14.63-1.24,21.5-3.67C116.66,300.54,133.95,276.09,133.95,248.79z M46.06,67.39
	c0-12.88,10.48-23.36,23.36-23.36c0.47,0,0.95,0.01,1.42,0.04c12.3,0.73,21.94,11.35,21.94,24.17l0,61.24
	c0,0.83-0.68,1.51-1.51,1.51l-43.69,0c-0.83,0-1.51-0.68-1.51-1.51L46.06,67.39z"/>
<g>
	<path d="M325.2,65.47v11.72h-48.86V14.08h47.69V25.8h-33.18v13.7h29.3v11.36h-29.3v14.61H325.2z"/>
	<path d="M339.98,76.42c-3.85-0.99-6.91-2.24-9.2-3.74l4.69-10.1c2.16,1.38,4.78,2.51,7.84,3.38c3.07,0.87,6.07,1.31,9.02,1.31
		c5.95,0,8.93-1.47,8.93-4.42c0-1.38-0.81-2.37-2.43-2.97c-1.62-0.6-4.12-1.11-7.48-1.53c-3.97-0.6-7.24-1.29-9.83-2.07
		c-2.58-0.78-4.82-2.16-6.72-4.15s-2.84-4.81-2.84-8.47c0-3.07,0.89-5.78,2.66-8.16c1.77-2.37,4.36-4.22,7.75-5.54
		c3.39-1.32,7.41-1.98,12.04-1.98c3.43,0,6.84,0.38,10.23,1.13c3.39,0.75,6.21,1.79,8.43,3.11l-4.69,10.01
		c-4.27-2.4-8.93-3.61-13.97-3.61c-3.01,0-5.26,0.42-6.76,1.26c-1.5,0.84-2.25,1.92-2.25,3.25c0,1.5,0.81,2.55,2.43,3.16
		c1.62,0.6,4.21,1.17,7.75,1.71c3.97,0.66,7.21,1.37,9.74,2.12c2.52,0.75,4.72,2.12,6.58,4.1c1.86,1.98,2.79,4.75,2.79,8.29
		c0,3.01-0.9,5.68-2.7,8.02c-1.8,2.34-4.43,4.16-7.89,5.46c-3.46,1.29-7.56,1.94-12.31,1.94C347.77,77.91,343.83,77.41,339.98,76.42
		z"/>
	<path d="M392.86,74.71c-4.12-2.13-7.33-5.09-9.65-8.88c-2.31-3.79-3.47-8.08-3.47-12.89c0-4.81,1.16-9.11,3.47-12.89
		c2.31-3.79,5.53-6.75,9.65-8.88c4.12-2.13,8.76-3.2,13.93-3.2c5.11,0,9.57,1.07,13.39,3.2c3.82,2.13,6.6,5.18,8.34,9.15
		l-10.91,5.86c-2.52-4.45-6.16-6.67-10.91-6.67c-3.67,0-6.7,1.2-9.11,3.61c-2.4,2.4-3.61,5.68-3.61,9.83c0,4.15,1.2,7.42,3.61,9.83
		c2.4,2.4,5.44,3.61,9.11,3.61c4.81,0,8.44-2.22,10.91-6.67l10.91,5.95c-1.74,3.85-4.52,6.85-8.34,9.02
		c-3.82,2.16-8.28,3.25-13.39,3.25C401.62,77.91,396.97,76.84,392.86,74.71z"/>
	<path d="M485.49,28.68v48.5h-13.34v-5.77c-1.86,2.1-4.09,3.71-6.67,4.82c-2.58,1.11-5.38,1.67-8.38,1.67
		c-6.37,0-11.42-1.83-15.15-5.5c-3.73-3.67-5.59-9.11-5.59-16.32V28.68h14.06v25.33c0,7.81,3.28,11.72,9.83,11.72
		c3.37,0,6.07-1.1,8.11-3.29c2.04-2.19,3.06-5.45,3.06-9.78V28.68H485.49z"/>
	<path d="M545.8,56.9h-36.69c0.66,3.01,2.22,5.38,4.69,7.12c2.46,1.74,5.53,2.61,9.2,2.61c2.52,0,4.76-0.38,6.72-1.13
		c1.95-0.75,3.77-1.94,5.45-3.56l7.48,8.11c-4.57,5.23-11.24,7.84-20.01,7.84c-5.47,0-10.31-1.07-14.52-3.2
		c-4.21-2.13-7.45-5.09-9.74-8.88c-2.29-3.79-3.43-8.08-3.43-12.89c0-4.75,1.13-9.03,3.38-12.85c2.25-3.82,5.35-6.79,9.29-8.92
		c3.94-2.13,8.34-3.2,13.21-3.2c4.75,0,9.04,1.02,12.89,3.07c3.85,2.04,6.87,4.97,9.06,8.79c2.19,3.82,3.29,8.25,3.29,13.3
		C546.07,53.29,545.98,54.56,545.8,56.9z M512.9,41.3c-2.16,1.8-3.49,4.27-3.97,7.39h23.89c-0.48-3.06-1.8-5.51-3.97-7.35
		c-2.16-1.83-4.81-2.75-7.93-2.75C517.73,38.6,515.06,39.5,512.9,41.3z"/>
	<path d="M555.45,10.29h14.06v66.89h-14.06V10.29z"/>
	<path d="M619.46,33.33c4.03,3.58,6.04,8.97,6.04,16.18v27.68h-13.16v-6.04c-2.65,4.51-7.57,6.76-14.79,6.76
		c-3.73,0-6.96-0.63-9.69-1.89c-2.74-1.26-4.82-3-6.27-5.23c-1.44-2.22-2.16-4.75-2.16-7.57c0-4.51,1.7-8.05,5.09-10.64
		c3.39-2.58,8.64-3.88,15.73-3.88h11.18c0-3.06-0.93-5.42-2.79-7.08c-1.86-1.65-4.66-2.48-8.38-2.48c-2.58,0-5.12,0.41-7.62,1.22
		s-4.61,1.91-6.36,3.29l-5.05-9.83c2.64-1.86,5.82-3.3,9.51-4.33c3.7-1.02,7.5-1.53,11.4-1.53
		C609.66,27.96,615.43,29.75,619.46,33.33z M607.47,66.77c1.86-1.11,3.18-2.75,3.97-4.91V56.9h-9.65c-5.77,0-8.66,1.89-8.66,5.68
		c0,1.8,0.71,3.23,2.12,4.28c1.41,1.05,3.35,1.58,5.81,1.58C603.47,68.44,605.6,67.89,607.47,66.77z"/>
	<path d="M670.98,76.24c-4.66-1.35-8.4-3.11-11.22-5.27l4.96-11c2.71,1.98,5.92,3.58,9.65,4.78c3.73,1.2,7.45,1.8,11.18,1.8
		c4.15,0,7.21-0.62,9.2-1.85c1.98-1.23,2.98-2.87,2.98-4.91c0-1.5-0.59-2.75-1.76-3.74c-1.17-0.99-2.68-1.79-4.51-2.39
		c-1.83-0.6-4.31-1.26-7.44-1.98c-4.81-1.14-8.75-2.28-11.81-3.43c-3.07-1.14-5.7-2.98-7.89-5.5c-2.19-2.52-3.29-5.89-3.29-10.1
		c0-3.67,0.99-6.99,2.98-9.96c1.98-2.98,4.97-5.33,8.97-7.08c4-1.74,8.88-2.62,14.65-2.62c4.03,0,7.96,0.48,11.81,1.44
		c3.85,0.96,7.21,2.34,10.1,4.15l-4.51,11.09c-5.83-3.3-11.66-4.96-17.49-4.96c-4.09,0-7.11,0.66-9.06,1.98
		c-1.95,1.32-2.93,3.07-2.93,5.23c0,2.16,1.13,3.77,3.38,4.82c2.25,1.05,5.69,2.09,10.32,3.11c4.81,1.14,8.75,2.29,11.81,3.43
		c3.06,1.14,5.69,2.95,7.89,5.41c2.19,2.47,3.29,5.8,3.29,10.01c0,3.61-1.01,6.9-3.02,9.87c-2.01,2.97-5.03,5.33-9.06,7.08
		c-4.03,1.74-8.92,2.61-14.69,2.61C680.46,78.27,675.64,77.59,670.98,76.24z"/>
	<path d="M770.1,28.68v48.5h-13.34v-5.77c-1.86,2.1-4.09,3.71-6.67,4.82c-2.58,1.11-5.38,1.67-8.38,1.67
		c-6.37,0-11.42-1.83-15.15-5.5c-3.73-3.67-5.59-9.11-5.59-16.32V28.68h14.06v25.33c0,7.81,3.27,11.72,9.83,11.72
		c3.37,0,6.07-1.1,8.11-3.29c2.04-2.19,3.07-5.45,3.07-9.78V28.68H770.1z"/>
	<path d="M824.15,31.07c3.7,2.07,6.59,4.99,8.7,8.75c2.1,3.76,3.16,8.13,3.16,13.12c0,4.99-1.05,9.36-3.16,13.12
		c-2.1,3.76-5,6.67-8.7,8.75c-3.7,2.07-7.8,3.11-12.31,3.11c-6.19,0-11.06-1.95-14.6-5.86v22.63h-14.06V28.68h13.43v5.59
		c3.49-4.21,8.57-6.31,15.24-6.31C816.35,27.96,820.45,29,824.15,31.07z M818.29,62.72c2.31-2.43,3.47-5.69,3.47-9.78
		c0-4.09-1.16-7.35-3.47-9.78c-2.31-2.43-5.27-3.65-8.88-3.65c-3.61,0-6.57,1.22-8.88,3.65c-2.31,2.43-3.47,5.7-3.47,9.78
		c0,4.09,1.16,7.35,3.47,9.78c2.31,2.43,5.27,3.65,8.88,3.65C813.02,66.37,815.98,65.15,818.29,62.72z"/>
	<path d="M892.62,56.9h-36.69c0.66,3.01,2.22,5.38,4.69,7.12c2.46,1.74,5.53,2.61,9.2,2.61c2.52,0,4.76-0.38,6.72-1.13
		c1.95-0.75,3.77-1.94,5.45-3.56l7.48,8.11c-4.57,5.23-11.24,7.84-20.01,7.84c-5.47,0-10.31-1.07-14.51-3.2
		c-4.21-2.13-7.45-5.09-9.74-8.88s-3.43-8.08-3.43-12.89c0-4.75,1.13-9.03,3.38-12.85c2.25-3.82,5.35-6.79,9.29-8.92
		c3.94-2.13,8.34-3.2,13.21-3.2c4.75,0,9.04,1.02,12.89,3.07c3.85,2.04,6.87,4.97,9.06,8.79c2.19,3.82,3.29,8.25,3.29,13.3
		C892.89,53.29,892.8,54.56,892.62,56.9z M859.72,41.3c-2.16,1.8-3.49,4.27-3.97,7.39h23.89c-0.48-3.06-1.8-5.51-3.97-7.35
		c-2.16-1.83-4.81-2.75-7.93-2.75C864.55,38.6,861.88,39.5,859.72,41.3z"/>
	<path d="M922.51,29.76c2.85-1.2,6.14-1.8,9.87-1.8v12.98c-1.56-0.12-2.61-0.18-3.16-0.18c-4.03,0-7.18,1.13-9.47,3.38
		c-2.29,2.25-3.43,5.63-3.43,10.14v22.9h-14.06v-48.5h13.43v6.4C917.38,32.74,919.65,30.97,922.51,29.76z"/>
	<path d="M941.48,19.67c-1.62-1.5-2.43-3.37-2.43-5.59c0-2.22,0.81-4.09,2.43-5.59c1.62-1.5,3.73-2.25,6.31-2.25
		c2.58,0,4.69,0.72,6.31,2.16s2.43,3.25,2.43,5.41c0,2.34-0.81,4.28-2.43,5.82c-1.62,1.53-3.73,2.3-6.31,2.3
		C945.21,21.92,943.11,21.17,941.48,19.67z M940.76,28.68h14.06v48.5h-14.06V28.68z"/>
	<path d="M977.23,74.71c-4.06-2.13-7.23-5.09-9.51-8.88s-3.43-8.08-3.43-12.89c0-4.81,1.14-9.11,3.43-12.89s5.46-6.75,9.51-8.88
		c4.06-2.13,8.64-3.2,13.75-3.2s9.68,1.07,13.7,3.2c4.03,2.13,7.18,5.09,9.47,8.88c2.28,3.79,3.43,8.08,3.43,12.89
		c0,4.81-1.14,9.11-3.43,12.89c-2.29,3.79-5.44,6.75-9.47,8.88c-4.03,2.13-8.6,3.2-13.7,3.2S981.29,76.84,977.23,74.71z
		 M999.86,62.72c2.31-2.43,3.47-5.69,3.47-9.78c0-4.09-1.16-7.35-3.47-9.78c-2.31-2.43-5.27-3.65-8.88-3.65
		c-3.61,0-6.58,1.22-8.92,3.65c-2.34,2.43-3.52,5.7-3.52,9.78c0,4.09,1.17,7.35,3.52,9.78s5.32,3.65,8.92,3.65
		C994.58,66.37,997.54,65.15,999.86,62.72z"/>
	<path d="M1047.19,29.76c2.85-1.2,6.14-1.8,9.87-1.8v12.98c-1.56-0.12-2.61-0.18-3.16-0.18c-4.03,0-7.18,1.13-9.47,3.38
		c-2.29,2.25-3.43,5.63-3.43,10.14v22.9h-14.06v-48.5h13.43v6.4C1042.07,32.74,1044.33,30.97,1047.19,29.76z"/>
	<path d="M324.75,118.48v66.89h-13.43v-5.59c-3.49,4.21-8.54,6.31-15.15,6.31c-4.57,0-8.7-1.02-12.4-3.07
		c-3.7-2.04-6.6-4.96-8.7-8.75c-2.1-3.79-3.16-8.17-3.16-13.16c0-4.99,1.05-9.38,3.16-13.16c2.1-3.79,5-6.7,8.7-8.75
		c3.7-2.04,7.83-3.07,12.4-3.07c6.19,0,11.03,1.95,14.51,5.86v-23.53H324.75z M307.44,170.9c2.34-2.43,3.52-5.69,3.52-9.78
		c0-4.09-1.17-7.35-3.52-9.78c-2.34-2.43-5.29-3.65-8.83-3.65c-3.61,0-6.58,1.22-8.93,3.65c-2.34,2.43-3.52,5.7-3.52,9.78
		c0,4.09,1.17,7.35,3.52,9.78s5.32,3.65,8.93,3.65C302.15,174.55,305.09,173.34,307.44,170.9z"/>
	<path d="M384.97,165.09h-36.69c0.66,3.01,2.22,5.38,4.69,7.12c2.46,1.74,5.53,2.61,9.2,2.61c2.52,0,4.76-0.38,6.72-1.13
		c1.95-0.75,3.77-1.94,5.45-3.56l7.48,8.11c-4.57,5.23-11.24,7.84-20.01,7.84c-5.47,0-10.31-1.07-14.52-3.2
		c-4.21-2.13-7.45-5.09-9.74-8.88c-2.29-3.79-3.43-8.08-3.43-12.89c0-4.75,1.13-9.03,3.38-12.85c2.25-3.82,5.35-6.79,9.29-8.92
		c3.94-2.13,8.34-3.2,13.21-3.2c4.75,0,9.04,1.02,12.89,3.07c3.85,2.04,6.87,4.97,9.06,8.79c2.19,3.82,3.29,8.25,3.29,13.3
		C385.24,161.48,385.15,162.74,384.97,165.09z M352.06,149.49c-2.16,1.8-3.49,4.27-3.97,7.39h23.89c-0.48-3.06-1.8-5.51-3.97-7.35
		c-2.16-1.83-4.81-2.75-7.93-2.75C356.9,146.79,354.23,147.69,352.06,149.49z"/>
	<path d="M462.68,171.85h-29.3l-5.59,13.52h-14.97l28.13-63.11h14.42l28.22,63.11h-15.33L462.68,171.85z M458.08,160.76
		l-10.01-24.16l-10.01,24.16H458.08z"/>
	<path d="M509.43,137.95c2.85-1.2,6.14-1.8,9.87-1.8v12.98c-1.56-0.12-2.61-0.18-3.16-0.18c-4.03,0-7.18,1.13-9.47,3.38
		c-2.28,2.25-3.43,5.63-3.43,10.14v22.9h-14.06v-48.5h13.43v6.4C504.3,140.92,506.57,139.15,509.43,137.95z"/>
	<path d="M560.68,183.03c-1.38,1.02-3.08,1.79-5.09,2.3s-4.13,0.77-6.36,0.77c-5.77,0-10.23-1.47-13.39-4.42
		c-3.16-2.94-4.73-7.27-4.73-12.98v-19.92h-7.48v-10.82h7.48v-11.81h14.06v11.81h12.08v10.82h-12.08v19.74
		c0,2.04,0.53,3.62,1.58,4.73c1.05,1.11,2.54,1.67,4.46,1.67c2.22,0,4.12-0.6,5.68-1.8L560.68,183.03z"/>
	<path d="M614.32,165.09h-36.69c0.66,3.01,2.22,5.38,4.69,7.12c2.46,1.74,5.53,2.61,9.2,2.61c2.52,0,4.76-0.38,6.72-1.13
		c1.95-0.75,3.77-1.94,5.45-3.56l7.48,8.11c-4.57,5.23-11.24,7.84-20.01,7.84c-5.47,0-10.31-1.07-14.51-3.2
		c-4.21-2.13-7.45-5.09-9.74-8.88s-3.43-8.08-3.43-12.89c0-4.75,1.13-9.03,3.38-12.85c2.25-3.82,5.35-6.79,9.29-8.92
		c3.94-2.13,8.34-3.2,13.21-3.2c4.75,0,9.04,1.02,12.89,3.07c3.85,2.04,6.87,4.97,9.06,8.79c2.19,3.82,3.29,8.25,3.29,13.3
		C614.59,161.48,614.5,162.74,614.32,165.09z M581.41,149.49c-2.16,1.8-3.49,4.27-3.97,7.39h23.89c-0.48-3.06-1.8-5.51-3.97-7.35
		c-2.16-1.83-4.81-2.75-7.93-2.75C586.25,146.79,583.58,147.69,581.41,149.49z"/>
	<path d="M697.62,136.87l-21.91,51.48c-2.22,5.59-4.97,9.53-8.25,11.81c-3.28,2.28-7.23,3.43-11.85,3.43
		c-2.52,0-5.02-0.39-7.48-1.17c-2.46-0.78-4.48-1.86-6.04-3.25l5.14-10.01c1.08,0.96,2.33,1.71,3.74,2.25
		c1.41,0.54,2.81,0.81,4.19,0.81c1.92,0,3.49-0.47,4.69-1.4c1.2-0.93,2.28-2.48,3.25-4.64l0.18-0.45l-21.01-48.86h14.52l13.61,32.91
		l13.7-32.91H697.62z"/>
	<path d="M729.89,122.26h28.67c6.85,0,12.91,1.31,18.17,3.92c5.26,2.61,9.34,6.3,12.26,11.04c2.91,4.75,4.37,10.28,4.37,16.59
		c0,6.31-1.46,11.84-4.37,16.59c-2.92,4.75-7,8.43-12.26,11.04c-5.26,2.61-11.31,3.92-18.17,3.92h-28.67V122.26z M757.84,173.38
		c6.31,0,11.34-1.76,15.1-5.27c3.76-3.52,5.63-8.28,5.63-14.29c0-6.01-1.88-10.77-5.63-14.29c-3.76-3.52-8.79-5.27-15.1-5.27H744.5
		v39.13H757.84z"/>
	<path d="M804.09,127.85c-1.62-1.5-2.43-3.37-2.43-5.59c0-2.22,0.81-4.09,2.43-5.59c1.62-1.5,3.73-2.25,6.31-2.25
		c2.58,0,4.69,0.72,6.31,2.16s2.43,3.25,2.43,5.41c0,2.34-0.81,4.28-2.43,5.82c-1.62,1.53-3.73,2.3-6.31,2.3
		C807.82,130.11,805.71,129.36,804.09,127.85z M803.37,136.87h14.06v48.5h-14.06V136.87z"/>
	<path d="M835.01,184.6c-3.85-0.99-6.91-2.24-9.2-3.74l4.69-10.1c2.16,1.38,4.78,2.51,7.84,3.38c3.06,0.87,6.07,1.31,9.01,1.31
		c5.95,0,8.93-1.47,8.93-4.42c0-1.38-0.81-2.37-2.43-2.97c-1.62-0.6-4.12-1.11-7.48-1.53c-3.97-0.6-7.24-1.29-9.83-2.07
		c-2.58-0.78-4.82-2.16-6.72-4.15c-1.89-1.98-2.84-4.81-2.84-8.47c0-3.07,0.89-5.78,2.66-8.16c1.77-2.37,4.36-4.22,7.75-5.54
		c3.4-1.32,7.41-1.98,12.04-1.98c3.43,0,6.84,0.38,10.23,1.13c3.39,0.75,6.21,1.79,8.43,3.11l-4.69,10.01
		c-4.27-2.4-8.92-3.61-13.97-3.61c-3.01,0-5.26,0.42-6.76,1.26c-1.5,0.84-2.25,1.92-2.25,3.25c0,1.5,0.81,2.55,2.43,3.16
		c1.62,0.6,4.21,1.17,7.75,1.71c3.97,0.66,7.21,1.37,9.74,2.12c2.52,0.75,4.72,2.12,6.58,4.1c1.86,1.98,2.79,4.75,2.79,8.29
		c0,3.01-0.9,5.68-2.7,8.02c-1.8,2.34-4.43,4.16-7.89,5.46c-3.46,1.29-7.56,1.94-12.31,1.94C842.8,186.09,838.86,185.6,835.01,184.6
		z"/>
	<path d="M925.62,165.09h-36.69c0.66,3.01,2.22,5.38,4.69,7.12c2.46,1.74,5.53,2.61,9.2,2.61c2.52,0,4.76-0.38,6.72-1.13
		c1.95-0.75,3.77-1.94,5.45-3.56l7.48,8.11c-4.57,5.23-11.24,7.84-20.01,7.84c-5.47,0-10.31-1.07-14.51-3.2
		c-4.21-2.13-7.45-5.09-9.74-8.88s-3.43-8.08-3.43-12.89c0-4.75,1.13-9.03,3.38-12.85c2.25-3.82,5.35-6.79,9.29-8.92
		c3.94-2.13,8.34-3.2,13.21-3.2c4.75,0,9.04,1.02,12.89,3.07c3.85,2.04,6.87,4.97,9.06,8.79c2.19,3.82,3.29,8.25,3.29,13.3
		C925.89,161.48,925.8,162.74,925.62,165.09z M892.71,149.49c-2.16,1.8-3.49,4.27-3.97,7.39h23.89c-0.48-3.06-1.8-5.51-3.97-7.35
		c-2.16-1.83-4.81-2.75-7.93-2.75C897.55,146.79,894.88,147.69,892.71,149.49z"/>
	<path d="M979.3,141.56c3.7,3.61,5.54,8.96,5.54,16.05v27.77h-14.06v-25.6c0-3.85-0.84-6.72-2.52-8.61
		c-1.68-1.89-4.12-2.84-7.3-2.84c-3.55,0-6.37,1.1-8.47,3.29c-2.1,2.19-3.16,5.45-3.16,9.78v23.98h-14.06v-48.5h13.43v5.68
		c1.86-2.04,4.18-3.62,6.94-4.73c2.76-1.11,5.8-1.67,9.11-1.67C970.75,136.15,975.61,137.95,979.3,141.56z M962.63,129.97
		c-1.23-0.63-2.6-1.49-4.1-2.57c-0.96-0.72-1.76-1.26-2.39-1.62c-0.63-0.36-1.25-0.54-1.85-0.54c-1.26,0-2.29,0.44-3.07,1.31
		c-0.78,0.87-1.2,2.12-1.26,3.74h-7.12c0.12-4.03,1.13-7.23,3.02-9.6c1.89-2.37,4.4-3.56,7.53-3.56c1.56,0,2.96,0.32,4.19,0.95
		c1.23,0.63,2.63,1.52,4.19,2.66c0.96,0.72,1.76,1.26,2.39,1.62c0.63,0.36,1.25,0.54,1.85,0.54c1.2,0,2.21-0.44,3.02-1.31
		c0.81-0.87,1.25-2.06,1.31-3.56h7.12c-0.12,3.91-1.13,7.03-3.02,9.38c-1.89,2.34-4.4,3.52-7.53,3.52
		C965.29,130.92,963.86,130.6,962.63,129.97z"/>
	<path d="M1007.43,182.89c-4.06-2.13-7.23-5.09-9.51-8.88s-3.43-8.08-3.43-12.89c0-4.81,1.14-9.11,3.43-12.89s5.46-6.75,9.51-8.88
		c4.06-2.13,8.64-3.2,13.75-3.2s9.68,1.07,13.7,3.2c4.03,2.13,7.18,5.09,9.47,8.88c2.28,3.79,3.43,8.08,3.43,12.89
		c0,4.81-1.14,9.11-3.43,12.89c-2.29,3.79-5.44,6.75-9.47,8.88c-4.03,2.13-8.6,3.2-13.7,3.2S1011.49,185.03,1007.43,182.89z
		 M1030.06,170.9c2.31-2.43,3.47-5.69,3.47-9.78c0-4.09-1.16-7.35-3.47-9.78c-2.31-2.43-5.27-3.65-8.88-3.65
		c-3.61,0-6.58,1.22-8.92,3.65c-2.34,2.43-3.52,5.7-3.52,9.78c0,4.09,1.17,7.35,3.52,9.78s5.32,3.65,8.92,3.65
		C1024.79,174.55,1027.75,173.34,1030.06,170.9z"/>
	<path d="M324.75,226.66v66.89h-13.43v-5.59c-3.49,4.21-8.54,6.31-15.15,6.31c-4.57,0-8.7-1.02-12.4-3.07
		c-3.7-2.04-6.6-4.96-8.7-8.75c-2.1-3.79-3.16-8.17-3.16-13.16c0-4.99,1.05-9.38,3.16-13.16c2.1-3.79,5-6.7,8.7-8.75
		c3.7-2.04,7.83-3.07,12.4-3.07c6.19,0,11.03,1.95,14.51,5.86v-23.53H324.75z M307.44,279.09c2.34-2.43,3.52-5.69,3.52-9.78
		c0-4.09-1.17-7.35-3.52-9.78c-2.34-2.43-5.29-3.65-8.83-3.65c-3.61,0-6.58,1.22-8.93,3.65c-2.34,2.43-3.52,5.7-3.52,9.78
		c0,4.09,1.17,7.35,3.52,9.78s5.32,3.65,8.93,3.65C302.15,282.74,305.09,281.52,307.44,279.09z"/>
	<path d="M384.97,273.27h-36.69c0.66,3.01,2.22,5.38,4.69,7.12c2.46,1.74,5.53,2.61,9.2,2.61c2.52,0,4.76-0.38,6.72-1.13
		c1.95-0.75,3.77-1.94,5.45-3.56l7.48,8.11c-4.57,5.23-11.24,7.84-20.01,7.84c-5.47,0-10.31-1.07-14.52-3.2
		c-4.21-2.13-7.45-5.09-9.74-8.88c-2.29-3.79-3.43-8.08-3.43-12.89c0-4.75,1.13-9.03,3.38-12.85c2.25-3.82,5.35-6.79,9.29-8.92
		c3.94-2.13,8.34-3.2,13.21-3.2c4.75,0,9.04,1.02,12.89,3.07c3.85,2.04,6.87,4.97,9.06,8.79c2.19,3.82,3.29,8.25,3.29,13.3
		C385.24,269.67,385.15,270.93,384.97,273.27z M352.06,257.67c-2.16,1.8-3.49,4.27-3.97,7.39h23.89c-0.48-3.06-1.8-5.51-3.97-7.35
		c-2.16-1.83-4.81-2.75-7.93-2.75C356.9,254.97,354.23,255.87,352.06,257.67z"/>
	<path d="M462.68,280.03h-29.3l-5.59,13.52h-14.97l28.13-63.11h14.42l28.22,63.11h-15.33L462.68,280.03z M458.08,268.94
		l-10.01-24.16l-10.01,24.16H458.08z"/>
	<path d="M533.23,249.74c3.7,3.61,5.54,8.96,5.54,16.05v27.77h-14.06v-25.6c0-3.85-0.84-6.72-2.52-8.61
		c-1.68-1.89-4.12-2.84-7.3-2.84c-3.55,0-6.37,1.1-8.47,3.29c-2.1,2.19-3.16,5.45-3.16,9.78v23.98h-14.06v-48.5h13.43v5.68
		c1.86-2.04,4.18-3.62,6.94-4.73c2.76-1.11,5.8-1.67,9.11-1.67C524.68,244.33,529.53,246.14,533.23,249.74z"/>
	<path d="M601.43,226.66v66.89H588v-5.59c-3.49,4.21-8.54,6.31-15.15,6.31c-4.57,0-8.7-1.02-12.4-3.07c-3.7-2.04-6.6-4.96-8.7-8.75
		c-2.1-3.79-3.16-8.17-3.16-13.16c0-4.99,1.05-9.38,3.16-13.16c2.1-3.79,5-6.7,8.7-8.75c3.7-2.04,7.83-3.07,12.4-3.07
		c6.19,0,11.03,1.95,14.52,5.86v-23.53H601.43z M584.12,279.09c2.34-2.43,3.52-5.69,3.52-9.78c0-4.09-1.17-7.35-3.52-9.78
		c-2.34-2.43-5.29-3.65-8.83-3.65c-3.61,0-6.58,1.22-8.92,3.65c-2.34,2.43-3.52,5.7-3.52,9.78c0,4.09,1.17,7.35,3.52,9.78
		c2.34,2.43,5.32,3.65,8.92,3.65C578.83,282.74,581.77,281.52,584.12,279.09z"/>
	<path d="M651.28,249.7c4.03,3.58,6.04,8.97,6.04,16.18v27.68h-13.16v-6.04c-2.65,4.51-7.57,6.76-14.79,6.76
		c-3.73,0-6.96-0.63-9.69-1.89c-2.74-1.26-4.82-3-6.27-5.23c-1.44-2.22-2.16-4.75-2.16-7.57c0-4.51,1.7-8.05,5.09-10.64
		c3.39-2.58,8.64-3.88,15.73-3.88h11.18c0-3.06-0.93-5.42-2.79-7.08c-1.86-1.65-4.66-2.48-8.38-2.48c-2.58,0-5.12,0.41-7.62,1.22
		s-4.61,1.91-6.36,3.29l-5.05-9.83c2.64-1.86,5.82-3.3,9.51-4.33c3.7-1.02,7.5-1.53,11.4-1.53
		C641.49,244.33,647.25,246.12,651.28,249.7z M639.29,283.14c1.86-1.11,3.18-2.75,3.97-4.91v-4.96h-9.65
		c-5.77,0-8.66,1.89-8.66,5.68c0,1.8,0.71,3.23,2.12,4.28c1.41,1.05,3.35,1.58,5.81,1.58C635.29,284.81,637.43,284.26,639.29,283.14
		z"/>
	<path d="M670.03,226.66h14.06v66.89h-14.06V226.66z"/>
	<path d="M746.03,245.05v48.5h-13.34v-5.77c-1.86,2.1-4.09,3.71-6.67,4.82c-2.58,1.11-5.38,1.67-8.38,1.67
		c-6.37,0-11.42-1.83-15.15-5.5c-3.73-3.67-5.59-9.11-5.59-16.32v-27.41h14.06v25.33c0,7.81,3.27,11.72,9.83,11.72
		c3.37,0,6.07-1.1,8.11-3.29c2.04-2.19,3.07-5.45,3.07-9.78v-23.98H746.03z"/>
	<path d="M768.62,291.08c-4.12-2.13-7.33-5.09-9.65-8.88c-2.31-3.79-3.47-8.08-3.47-12.89c0-4.81,1.16-9.11,3.47-12.89
		c2.31-3.79,5.53-6.75,9.65-8.88c4.12-2.13,8.76-3.2,13.93-3.2c5.11,0,9.57,1.07,13.39,3.2c3.82,2.13,6.6,5.18,8.34,9.15
		l-10.91,5.86c-2.52-4.45-6.16-6.67-10.91-6.67c-3.67,0-6.7,1.2-9.11,3.61c-2.4,2.4-3.61,5.68-3.61,9.83c0,4.15,1.2,7.42,3.61,9.83
		c2.4,2.4,5.44,3.61,9.11,3.61c4.81,0,8.44-2.22,10.91-6.67l10.91,5.95c-1.74,3.85-4.52,6.85-8.34,9.02
		c-3.82,2.16-8.28,3.25-13.39,3.25C777.38,294.28,772.73,293.21,768.62,291.08z"/>
	<path d="M823.38,225.85h15.15l-16.32,12.98h-11L823.38,225.85z M812.38,245.05h14.06v48.5h-14.06V245.05z"/>
	<path d="M876.39,249.7c4.03,3.58,6.04,8.97,6.04,16.18v27.68h-13.16v-6.04c-2.65,4.51-7.57,6.76-14.79,6.76
		c-3.73,0-6.96-0.63-9.69-1.89c-2.74-1.26-4.82-3-6.27-5.23c-1.44-2.22-2.16-4.75-2.16-7.57c0-4.51,1.7-8.05,5.09-10.64
		c3.39-2.58,8.64-3.88,15.73-3.88h11.18c0-3.06-0.93-5.42-2.79-7.08c-1.86-1.65-4.66-2.48-8.38-2.48c-2.58,0-5.12,0.41-7.62,1.22
		s-4.61,1.91-6.36,3.29l-5.05-9.83c2.64-1.86,5.82-3.3,9.51-4.33c3.7-1.02,7.5-1.53,11.4-1.53
		C866.6,244.33,872.37,246.12,876.39,249.7z M864.4,283.14c1.86-1.11,3.18-2.75,3.97-4.91v-4.96h-9.65c-5.77,0-8.66,1.89-8.66,5.68
		c0,1.8,0.71,3.23,2.12,4.28c1.41,1.05,3.35,1.58,5.81,1.58C860.41,284.81,862.54,284.26,864.4,283.14z"/>
</g>
<rect x="183.85" y="4.69" class="st2" width="33.91" height="306.83"/>
</svg>
